<svg width="30" height="30" viewBox="0 0 30 30" fill="none" xmlns="http://www.w3.org/2000/svg">
<g clip-path="url(#clip0_15_400)">
<path d="M4.16454 9.71747C3.64764 9.71747 3.20907 9.89772 2.84856 10.2582C2.48805 10.6187 2.30774 11.0513 2.30774 11.5563V19.3086C2.30774 19.8262 2.48799 20.2643 2.84856 20.6249C3.20907 20.9854 3.64764 21.1657 4.16454 21.1657C4.68106 21.1657 5.11697 20.9855 5.47189 20.6249C5.82611 20.2644 6.00371 19.8262 6.00371 19.3086V11.5563C6.00371 11.0513 5.82346 10.6187 5.46289 10.2582C5.10232 9.89772 4.66945 9.71747 4.16454 9.71747Z" fill="#EEEEEE"/>
<path d="M19.0926 2.75818L20.3726 0.396789C20.4567 0.240455 20.4268 0.120574 20.2827 0.0362778C20.1263 -0.0364103 20.0061 0.000421912 19.9222 0.144171L18.6242 2.52443C17.4821 2.01947 16.2741 1.76653 15.0003 1.76653C13.7262 1.76653 12.5181 2.01952 11.3764 2.52443L10.0784 0.144171C9.99402 0.000421912 9.87386 -0.0360849 9.71785 0.0362778C9.57346 0.120954 9.54357 0.240455 9.62792 0.396789L10.908 2.75818C9.61002 3.42012 8.57622 4.34202 7.80703 5.52586C7.03783 6.71035 6.65308 8.00473 6.65308 9.4113H23.3293C23.3293 8.00506 22.9445 6.71062 22.1754 5.52586C21.4062 4.34202 20.3783 3.42012 19.0926 2.75818ZM11.6918 6.19285C11.5533 6.33161 11.388 6.40066 11.1958 6.40066C11.0032 6.40066 10.8413 6.33161 10.7091 6.19285C10.577 6.05474 10.5109 5.89005 10.5109 5.69721C10.5109 5.50502 10.577 5.34001 10.7091 5.20158C10.8413 5.06347 11.0036 4.99442 11.1958 4.99442C11.388 4.99442 11.5533 5.06347 11.6918 5.20158C11.8299 5.34034 11.8993 5.50502 11.8993 5.69721C11.8989 5.88973 11.8296 6.05474 11.6918 6.19285ZM19.2907 6.19285C19.1583 6.33161 18.9959 6.40066 18.8041 6.40066C18.6115 6.40066 18.4462 6.33161 18.308 6.19285C18.1696 6.05474 18.1006 5.89005 18.1006 5.69721C18.1006 5.50502 18.1696 5.34001 18.308 5.20158C18.4462 5.06347 18.6115 4.99442 18.8041 4.99442C18.9963 4.99442 19.1582 5.06347 19.2907 5.20158C19.423 5.34034 19.4889 5.50502 19.4889 5.69721C19.4889 5.88973 19.4229 6.05474 19.2907 6.19285Z" fill="#EEEEEE"/>
<path d="M6.72473 22.067C6.72473 22.6204 6.91692 23.0889 7.30135 23.4733C7.68611 23.8577 8.15457 24.0499 8.7076 24.0499H10.0418L10.0601 28.1429C10.0601 28.6598 10.2403 29.0987 10.6009 29.4592C10.9614 29.8198 11.3943 30 11.8989 30C12.4154 30 12.8543 29.8198 13.2149 29.4592C13.5754 29.0987 13.7557 28.6598 13.7557 28.1429V24.0503H16.2436V28.1429C16.2436 28.6598 16.4238 29.0987 16.7843 29.4592C17.1449 29.8198 17.5834 30 18.1003 30C18.6169 30 19.0557 29.8198 19.4163 29.4592C19.7769 29.0987 19.9571 28.6598 19.9571 28.1429V24.0503H21.3093C21.85 24.0503 22.3125 23.8581 22.6976 23.4736C23.082 23.0892 23.2743 22.6207 23.2743 22.0674V10.0597H6.72473V22.067Z" fill="#EEEEEE"/>
<path d="M25.8354 9.71747C25.3305 9.71747 24.8979 9.89507 24.5373 10.2493C24.1768 10.6042 23.9966 11.0401 23.9966 11.5563V19.3086C23.9966 19.8262 24.1768 20.2643 24.5373 20.6249C24.8979 20.9855 25.3308 21.1657 25.8354 21.1657C26.352 21.1657 26.7908 20.9855 27.1514 20.6249C27.512 20.2643 27.6922 19.8262 27.6922 19.3086V11.5563C27.6922 11.04 27.512 10.6042 27.1514 10.2493C26.7908 9.89507 26.352 9.71747 25.8354 9.71747Z" fill="#EEEEEE"/>
</g>
<defs>
<clipPath id="clip0_15_400">
<rect width="30" height="30" fill="white"/>
</clipPath>
</defs>
</svg>
