<svg width="28" height="28" viewBox="0 0 28 28" fill="none" xmlns="http://www.w3.org/2000/svg">
<g clip-path="url(#clip0_15_408)">
<path d="M21.6413 14.8755C21.6807 19.1129 25.3586 20.5229 25.3993 20.5409C25.3682 20.6403 24.8116 22.5503 23.4616 24.5232C22.2946 26.229 21.0834 27.9284 19.1753 27.9636C17.3005 27.9981 16.6977 26.8518 14.5542 26.8518C12.4114 26.8518 11.7416 27.9284 9.96682 27.9981C8.12509 28.0679 6.72257 26.1537 5.5459 24.4542C3.1414 20.9779 1.30386 14.6311 3.77121 10.3469C4.99693 8.21929 7.1874 6.87202 9.56495 6.83747C11.3735 6.80297 13.0805 8.0542 14.1861 8.0542C15.291 8.0542 17.3654 6.54949 19.5462 6.77048C20.4591 6.80847 23.0218 7.13925 24.6673 9.5479C24.5347 9.6301 21.6095 11.333 21.6413 14.8755ZM18.1178 4.47062C19.0956 3.28704 19.7537 1.6394 19.5742 0C18.1648 0.0566465 16.4605 0.939191 15.4495 2.12212C14.5435 3.16965 13.7501 4.8463 13.9642 6.45325C15.5351 6.57479 17.14 5.65495 18.1178 4.47062Z" fill="#EEEEEE"/>
</g>
<defs>
<clipPath id="clip0_15_408">
<rect width="28" height="28" fill="white"/>
</clipPath>
</defs>
</svg>
